<?xml version="1.0" standalone="no"?><!DOCTYPE svg PUBLIC "-//W3C//DTD SVG 1.1//EN" "http://www.w3.org/Graphics/SVG/1.1/DTD/svg11.dtd"><svg t="1534079174464" class="icon" style="" viewBox="0 0 1099 1024" version="1.1" xmlns="http://www.w3.org/2000/svg" p-id="759" xmlns:xlink="http://www.w3.org/1999/xlink" width="214.6484375" height="200"><defs><style type="text/css"></style></defs><path d="M968.726 596.573v-418.5q0-6.3-4.5-10.8t-11.7-5.4h-803.7q-6.3 0-10.8 5.4t-5.4 10.8v418.5q0 6.3 5.4 10.8t10.8 4.5h803.7q6.3 0 11.7-4.5t4.5-10.8zM1032.626 178.073v546.3q0 33.3-23.4 56.7t-56.7 24.3h-272.7q0 18 8.1 38.7t15.3 36 8.1 21.6q0 12.6-9 22.5t-22.5 9.9h-257.4q-13.5 0-22.5-9.9t-9.9-22.5q0-7.2 8.1-22.5t16.2-35.1 8.1-38.7h-273.6q-32.4 0-56.7-24.3t-23.4-56.7v-546.3q0-33.3 23.4-56.7t56.7-23.4h803.7q33.3 0 56.7 23.4t23.4 56.7z" p-id="760" fill="#666666"></path></svg>