<?xml version="1.0" standalone="no"?><!DOCTYPE svg PUBLIC "-//W3C//DTD SVG 1.1//EN" "http://www.w3.org/Graphics/SVG/1.1/DTD/svg11.dtd"><svg t="1532955064628" class="icon" style="" viewBox="0 0 1024 1024" version="1.1" xmlns="http://www.w3.org/2000/svg" p-id="1052" xmlns:xlink="http://www.w3.org/1999/xlink" width="200" height="200"><defs><style type="text/css"></style></defs><path d="M956.98777 383.284453l-32.18912-203.656353c-6.134721-39.130206-43.123147-76.157517-82.036411-82.373079L639.797641 65.040319c-5.238304-0.827855-10.759041-1.225921-16.457834-1.225921-36.764322 0-81.007989 16.541745-105.166201 40.793078L85.712127 538.576285c-27.883047 27.967982-27.883047 73.792657 0 101.805664l297.820989 298.810526c13.957897 13.990642 32.364105 20.993127 50.764174 20.993127 18.387789 0 36.768415-6.992251 50.706869-20.993127l432.481945-433.924807C958.405049 464.212624 963.14398 422.370657 956.98777 383.284453L956.98777 383.284453zM878.235149 465.972711 445.728644 899.922077c-4.037966 4.055362-8.895601 4.66116-11.431354 4.66116-2.553149 0-7.447623-0.61296-11.514241-4.686742L124.987642 601.109504c-6.282077-6.309706-6.29538-16.947997-0.021489-23.24133l432.469666-433.976996c13.216-13.267165 43.396369-24.475438 65.903989-24.475438 2.888793 0 5.517667 0.184195 7.779174 0.541329l202.963575 32.214702c7.036253 1.143033 15.743566 6.204305 22.740934 13.223163 7.013741 7.037277 12.060687 15.796778 13.166881 22.861684l0.00614 0.033769 0.005117 0.034792 32.184003 203.626677C906.267599 417.862993 903.756405 440.365496 878.235149 465.972711L878.235149 465.972711z" p-id="1053" fill="#409EFF"></path><path d="M698.197726 231.719502c-48.930409 0-88.600921 39.759539-88.600921 88.798419 0 49.081858 39.671535 88.797395 88.62241 88.797395 48.906873 0 88.600921-39.802518 88.579431-88.797395C786.754644 271.480065 747.08311 231.719502 698.197726 231.719502L698.197726 231.719502z" p-id="1054" fill="#409EFF"></path></svg>