<?xml version="1.0" standalone="no"?><!DOCTYPE svg PUBLIC "-//W3C//DTD SVG 1.1//EN" "http://www.w3.org/Graphics/SVG/1.1/DTD/svg11.dtd"><svg t="1534500281316" class="icon" style="" viewBox="0 0 1024 1024" version="1.1" xmlns="http://www.w3.org/2000/svg" p-id="2275" xmlns:xlink="http://www.w3.org/1999/xlink" width="200" height="200"><defs><style type="text/css"></style></defs><path d="M512 64C264.576 64 64 264.577 64 512s200.576 448 448 448 448-200.576 448-448S759.424 64 512 64zM512 896c-212.078 0-384-171.923-384-384 0-212.077 171.922-384 384-384 212.077 0 384 171.923 384 384C896 724.077 724.077 896 512 896z" p-id="2276" fill="#889AA4"></path><path d="M352 256c-17.673 0-32 14.327-32 32l0 448c0 17.674 14.327 32 32 32s32-14.326 32-32L384 288C384 270.327 369.673 256 352 256z" p-id="2277" fill="#889AA4"></path><path d="M608 256 480 256c-17.673 0-32 14.326-32 32l0 448c0 17.674 14.327 32 32 32s32-14.326 32-32L512 576l96 0c88.366 0 160-71.635 160-160C768 327.634 696.366 256 608 256zM608 512l-96 0L512 320l96 0c53.02 0 96 42.98 96 96S661.02 512 608 512z" p-id="2278" fill="#889AA4"></path></svg>