<?xml version="1.0" standalone="no"?><!DOCTYPE svg PUBLIC "-//W3C//DTD SVG 1.1//EN" "http://www.w3.org/Graphics/SVG/1.1/DTD/svg11.dtd"><svg t="1533630827129" class="icon" style="" viewBox="0 0 1024 1024" version="1.1" xmlns="http://www.w3.org/2000/svg" p-id="1058" xmlns:xlink="http://www.w3.org/1999/xlink" width="200" height="200"><defs><style type="text/css"></style></defs><path d="M722.08 128.448c-6.016 0-11.872 0.672-17.76 1.12l0 55.68c137.312 0 248.64 146.272 248.64 326.752s-111.328 326.752-248.64 326.752l0 55.68c5.888 0.448 11.744 1.12 17.76 1.12C888.864 895.552 1024 723.84 1024 512S888.864 128.448 722.08 128.448zM864.16 512c0-111.552-67.776-204.64-159.808-233.76l0 76.8c47.104 28.064 79.904 87.488 79.904 156.928s-32.8 128.864-79.904 156.928l0 76.8C796.384 716.64 864.16 623.552 864.16 512zM544.256 0c-17.696 0-32 14.304-32 32L192.064 384 32 384c-17.696 0-32 14.304-32 32l0 256c0 17.696 14.336 32 32 32l160.064 0 320.16 288c0 17.696 14.304 32 32 32 17.728 0 32.032-14.304 32.032-32L576.256 32C576.288 14.304 561.984 0 544.256 0z" p-id="1059" fill="#409EFF"></path></svg>