<?xml version="1.0" standalone="no"?><!DOCTYPE svg PUBLIC "-//W3C//DTD SVG 1.1//EN" "http://www.w3.org/Graphics/SVG/1.1/DTD/svg11.dtd"><svg t="1533631431126" class="icon" style="" viewBox="0 0 1024 1024" version="1.1" xmlns="http://www.w3.org/2000/svg" p-id="1243" xmlns:xlink="http://www.w3.org/1999/xlink" width="200" height="200"><defs><style type="text/css"></style></defs><path d="M512 170.666667 422.826667 259.84 512 349.013333M182.186667 128 128 182.186667 329.813333 384 128 384 128 640 298.666667 640 512 853.333333 512 566.186667 693.333333 747.946667C664.746667 769.706667 632.746667 787.626667 597.333333 797.866667L597.333333 886.186667C656.213333 872.533333 709.546667 845.653333 754.346667 808.96L841.813333 896 896 841.813333 512 457.813333M810.666667 512C810.666667 552.106667 802.133333 589.653333 787.626667 624.64L852.053333 689.066667C879.786667 636.16 896 576 896 512 896 329.386667 768 176.64 597.333333 137.813333L597.333333 225.706667C720.64 262.4 810.666667 376.746667 810.666667 512M704 512C704 436.48 661.333333 371.626667 597.333333 340.053333L597.333333 434.346667 701.866667 538.88C704 530.346667 704 520.96 704 512Z" p-id="1244" fill="#409EFF"></path></svg>